<mxfile host="app.diagrams.net" modified="2023-10-24T15:34:57.604Z" agent="Mozilla/5.0 (Windows NT 10.0; Win64; x64) AppleWebKit/537.36 (KHTML, like Gecko) Chrome/118.0.0.0 Safari/537.36" etag="c1wpnP8wEDnN4t2r0AdL" version="22.0.6" type="device">
  <diagram name="1 oldal" id="Qe062nQs3WiJfZdrZxm0">
    <mxGraphModel dx="1050" dy="587" grid="1" gridSize="10" guides="1" tooltips="1" connect="1" arrows="1" fold="1" page="1" pageScale="1" pageWidth="827" pageHeight="1169" math="0" shadow="0">
      <root>
        <mxCell id="0" />
        <mxCell id="1" parent="0" />
        <mxCell id="hdpPUsB1ANlfNwqQmQ5H-1" value="Product" style="rounded=0;whiteSpace=wrap;html=1;" parent="1" vertex="1">
          <mxGeometry x="130" y="110" width="170" height="120" as="geometry" />
        </mxCell>
        <mxCell id="hdpPUsB1ANlfNwqQmQ5H-2" value="" style="rounded=0;whiteSpace=wrap;html=1;" parent="1" vertex="1">
          <mxGeometry x="130" y="90" width="70" height="20" as="geometry" />
        </mxCell>
        <mxCell id="hdpPUsB1ANlfNwqQmQ5H-4" value="Ordering" style="rounded=0;whiteSpace=wrap;html=1;" parent="1" vertex="1">
          <mxGeometry x="130" y="360" width="170" height="120" as="geometry" />
        </mxCell>
        <mxCell id="hdpPUsB1ANlfNwqQmQ5H-5" value="" style="rounded=0;whiteSpace=wrap;html=1;" parent="1" vertex="1">
          <mxGeometry x="130" y="340" width="70" height="20" as="geometry" />
        </mxCell>
        <mxCell id="hdpPUsB1ANlfNwqQmQ5H-6" value="DataBaseControl" style="rounded=0;whiteSpace=wrap;html=1;" parent="1" vertex="1">
          <mxGeometry x="500" y="360" width="170" height="120" as="geometry" />
        </mxCell>
        <mxCell id="hdpPUsB1ANlfNwqQmQ5H-7" value="" style="rounded=0;whiteSpace=wrap;html=1;" parent="1" vertex="1">
          <mxGeometry x="500" y="340" width="70" height="20" as="geometry" />
        </mxCell>
        <mxCell id="hdpPUsB1ANlfNwqQmQ5H-8" value="Admin" style="rounded=0;whiteSpace=wrap;html=1;" parent="1" vertex="1">
          <mxGeometry x="500" y="600" width="170" height="120" as="geometry" />
        </mxCell>
        <mxCell id="hdpPUsB1ANlfNwqQmQ5H-9" value="" style="rounded=0;whiteSpace=wrap;html=1;" parent="1" vertex="1">
          <mxGeometry x="130" y="580" width="70" height="20" as="geometry" />
        </mxCell>
        <mxCell id="hdpPUsB1ANlfNwqQmQ5H-10" value="" style="rounded=0;whiteSpace=wrap;html=1;" parent="1" vertex="1">
          <mxGeometry x="500" y="580" width="70" height="20" as="geometry" />
        </mxCell>
        <mxCell id="hdpPUsB1ANlfNwqQmQ5H-12" value="User" style="rounded=0;whiteSpace=wrap;html=1;" parent="1" vertex="1">
          <mxGeometry x="130" y="600" width="170" height="120" as="geometry" />
        </mxCell>
        <mxCell id="hdpPUsB1ANlfNwqQmQ5H-17" value="" style="html=1;verticalAlign=bottom;endArrow=open;dashed=1;endSize=8;curved=0;rounded=0;exitX=0.535;exitY=-0.014;exitDx=0;exitDy=0;exitPerimeter=0;entryX=0.5;entryY=1;entryDx=0;entryDy=0;" parent="1" source="hdpPUsB1ANlfNwqQmQ5H-12" target="hdpPUsB1ANlfNwqQmQ5H-4" edge="1">
          <mxGeometry relative="1" as="geometry">
            <mxPoint x="420" y="600" as="sourcePoint" />
            <mxPoint x="340" y="600" as="targetPoint" />
          </mxGeometry>
        </mxCell>
        <mxCell id="hdpPUsB1ANlfNwqQmQ5H-18" value="" style="html=1;verticalAlign=bottom;endArrow=open;dashed=1;endSize=8;curved=0;rounded=0;exitX=0.649;exitY=-0.014;exitDx=0;exitDy=0;exitPerimeter=0;entryX=0.5;entryY=1;entryDx=0;entryDy=0;" parent="1" source="hdpPUsB1ANlfNwqQmQ5H-8" target="hdpPUsB1ANlfNwqQmQ5H-4" edge="1">
          <mxGeometry relative="1" as="geometry">
            <mxPoint x="231" y="608" as="sourcePoint" />
            <mxPoint x="225" y="490" as="targetPoint" />
          </mxGeometry>
        </mxCell>
        <mxCell id="hdpPUsB1ANlfNwqQmQ5H-19" value="" style="html=1;verticalAlign=bottom;endArrow=open;dashed=1;endSize=8;curved=0;rounded=0;entryX=0.5;entryY=1;entryDx=0;entryDy=0;" parent="1" target="hdpPUsB1ANlfNwqQmQ5H-6" edge="1">
          <mxGeometry relative="1" as="geometry">
            <mxPoint x="610" y="600" as="sourcePoint" />
            <mxPoint x="225" y="490" as="targetPoint" />
          </mxGeometry>
        </mxCell>
        <mxCell id="hdpPUsB1ANlfNwqQmQ5H-20" value="" style="html=1;verticalAlign=bottom;endArrow=open;dashed=1;endSize=8;curved=0;rounded=0;exitX=0.5;exitY=1;exitDx=0;exitDy=0;entryX=0.567;entryY=-0.003;entryDx=0;entryDy=0;entryPerimeter=0;" parent="1" source="hdpPUsB1ANlfNwqQmQ5H-1" target="hdpPUsB1ANlfNwqQmQ5H-4" edge="1">
          <mxGeometry relative="1" as="geometry">
            <mxPoint x="620" y="610" as="sourcePoint" />
            <mxPoint x="320" y="320" as="targetPoint" />
          </mxGeometry>
        </mxCell>
        <mxCell id="hdpPUsB1ANlfNwqQmQ5H-21" value="" style="html=1;verticalAlign=bottom;endArrow=open;dashed=1;endSize=8;curved=0;rounded=0;exitX=1.006;exitY=0.592;exitDx=0;exitDy=0;entryX=-0.022;entryY=0.608;entryDx=0;entryDy=0;entryPerimeter=0;exitPerimeter=0;" parent="1" source="hdpPUsB1ANlfNwqQmQ5H-4" target="hdpPUsB1ANlfNwqQmQ5H-6" edge="1">
          <mxGeometry relative="1" as="geometry">
            <mxPoint x="225" y="240" as="sourcePoint" />
            <mxPoint x="236" y="370" as="targetPoint" />
          </mxGeometry>
        </mxCell>
      </root>
    </mxGraphModel>
  </diagram>
</mxfile>
